<svg xmlns="http://www.w3.org/2000/svg" xmlns:xlink="http://www.w3.org/1999/xlink" version="1.1" x="0px" y="0px" viewBox="0 0 48 48" enable-background="new 0 0 48 48" xml:space="preserve"><path fill="#7952b3" d="M36.4,5.4c-1,1-1,2.3-1,2.3c0,0.9-0.2,1.9-0.5,2.2c-0.3,0.3-1.1,0-1.8-0.6l-7.5-7.5  c-0.7-0.7-1.4-1.3-1.6-1.3c-0.2-0.1-1.2,0.7-1.8,1.3l-7.5,7.5c-0.7,0.7-1.5,0.9-1.8,0.6s-0.6-1.4-0.5-2.3c0,0,0.1-1.2-1-2.3  C9.9,3.8,7.3,3.9,5.6,5.6c-1.7,1.7-1.8,4.3-0.2,5.9c1,1,2.3,1,2.3,1c0.9,0,1.9,0.2,2.3,0.5s0.1,1.1-0.6,1.8l-7.5,7.5  c-0.7,0.7-1.3,1.4-1.3,1.6c-0.1,0.2,0.7,1.2,1.3,1.8l7.5,7.5c0.7,0.7,0.9,1.5,0.6,1.8c-0.3,0.3-1.4,0.6-2.3,0.5c0,0-1.2-0.1-2.3,1  c-1.6,1.6-1.5,4.2,0.2,5.9c1.7,1.7,4.3,1.8,5.9,0.2c1-1,1-2.3,1-2.3c0-0.9,0.2-1.9,0.5-2.3s1.1-0.1,1.8,0.6l7.5,7.5  c0.7,0.7,1.4,1.3,1.6,1.3c0.2,0.1,1.2-0.7,1.8-1.3l7-7c0.7-0.7,1.3-1.4,1.3-1.6c0.1-0.2-0.4-0.9-0.7-1.2s-0.7-0.6-1-0.8  c0,0,0,0-0.2,0c-1.3,0.3-2.6-0.1-3.6-1c-1.6-1.6-1.5-4.2,0.2-5.9c1.7-1.7,4.3-1.8,5.9-0.2c0.9,0.9,1.3,2.3,1,3.6c0,0.2,0,0.2,0,0.2  c0.1,0.2,0.5,0.7,0.8,1c0.3,0.3,0.7,0.6,0.9,0.7c0.2,0.1,1.2-0.7,1.8-1.3l7-7c0.7-0.7,1.3-1.4,1.3-1.6s-0.7-1.2-1.3-1.8l-7.5-7.5  c-0.7-0.7-0.9-1.4-0.6-1.8c0.3-0.3,1.3-0.5,2.2-0.5c0,0,1.2,0.1,2.3-1c1.6-1.6,1.5-4.2-0.2-5.9C40.7,3.9,38,3.8,36.4,5.4z"/></svg>